<svg width="536" height="430" viewBox="0 0 536 430" fill="none" xmlns="http://www.w3.org/2000/svg">
<path d="M42.0517 49.7142L44.8053 66.4897L86.3065 34.4923L88.4818 42.5941L47.7883 78.1278L44.8053 97.739L79.3491 157.607L159.079 191.649L122.975 152.383L126.885 123.522L133.801 102.819L151.635 83.3511L159.056 88.8556L141.69 102.819L133.801 123.498L131.305 152.36L180.158 197.392L197.951 205.865L180.158 157.583V108.667L197.951 78.0992L203.426 88.8556L192.843 113.781V157.583L229.764 221.011L246.024 228.755L209.571 255.858L72.3504 185.205L26.5673 108.667L16.0669 47.1883L0.316406 5.3209L16.0669 8.80946L26.5673 42.8276L70.0328 0.960205H81.0471L42.0517 49.7142Z" fill="#C39676"/>
<path d="M493.953 49.7219L491.199 66.4974L449.698 34.5L447.523 42.6018L488.216 78.1355L491.199 97.7467L456.678 157.591L376.948 191.633L413.052 152.367L409.142 123.506L402.217 102.827L384.383 83.3588L376.948 88.8633L392.731 102.827L402.217 123.506V152.367L355.865 197.399L338.072 205.873L355.865 157.591V108.675L338.072 78.1069L332.597 88.8633L343.152 113.807V157.591L306.245 221.018L289.985 228.763L326.433 255.861L463.649 185.213L509.432 108.675L519.933 47.196L535.683 5.3286L519.933 8.81715L509.432 42.8353L465.967 0.953613H454.953L493.953 49.7219Z" fill="#C39676"/>
<path d="M470.605 170.2L309.955 243.474L327.7 255.498L463.206 185.765L470.605 170.2Z" fill="#A47F64"/>
<path d="M512.823 88.7433L449.446 183.361L463.642 185.009L510.194 109.033L512.823 88.7433Z" fill="#A47F64"/>
<path d="M207.556 254.99L245.353 227.625H293.752L327.562 254.99L337.135 302.033L307.066 377.647L305.574 394.656L266.565 419.08L230.034 394.656L228.768 377.647L199.786 301.327L207.556 254.99Z" fill="#A1755C"/>
<path d="M63.2444 170.2L223.895 243.474L207.677 255.244L72.1534 185.255L63.2444 170.2Z" fill="#A47F64"/>
<path d="M329.257 256.443L293.048 227.264L274.509 361.715L266.7 419.066L305.482 394.713L307.076 377.458L337.046 301.969L329.257 256.443Z" fill="#7D5B48"/>
<path d="M98.8941 227.001L175.085 283.416L201.731 303.112L210.114 254.854L98.8941 227.001Z" fill="#7D5B48"/>
<path d="M101.518 228.064L120.413 267.574L157.043 295.016L201.208 301.229L101.518 228.064Z" fill="#FCDBB1"/>
<path d="M436.95 224.969L361.702 282.831L335.391 303.057L326.173 254.946L436.95 224.969Z" fill="#7D5B48"/>
<path d="M434.348 226.05L416.249 266.206L380.378 294.548L336.708 301.656L434.348 226.05Z" fill="#FCDBB1"/>
<path d="M207.342 255.088L244.618 228.173L260.269 361.256L266.546 419.058L229.756 394.561L229.74 377.795L198.958 299.043L207.342 255.088Z" fill="#7D5B48"/>
<path d="M266.668 419.088L224.248 243.107L244.758 227.193L266.668 419.088Z" fill="#88634F"/>
<path d="M266.794 418.763L314.408 244.323L293.005 227.189L266.794 418.763Z" fill="#88634F"/>
<path d="M23.1945 88.752L86.5729 183.37L72.3761 185.018L25.823 109.041L23.1945 88.752Z" fill="#A47F64"/>
</svg>
